<svg id="visual" viewBox="0 0 900 600" width="900" height="600" xmlns="http://www.w3.org/2000/svg" xmlns:xlink="http://www.w3.org/1999/xlink" version="1.1"><rect x="0" y="0" width="900" height="600" fill="#5D566B"></rect><defs><linearGradient id="grad1_0" x1="33.3%" y1="100%" x2="100%" y2="0%"><stop offset="20%" stop-color="#000000" stop-opacity="1"></stop><stop offset="80%" stop-color="#000000" stop-opacity="1"></stop></linearGradient></defs><defs><linearGradient id="grad1_1" x1="33.3%" y1="100%" x2="100%" y2="0%"><stop offset="20%" stop-color="#000000" stop-opacity="1"></stop><stop offset="80%" stop-color="#231e30" stop-opacity="1"></stop></linearGradient></defs><defs><linearGradient id="grad1_2" x1="33.3%" y1="100%" x2="100%" y2="0%"><stop offset="20%" stop-color="#3f394d" stop-opacity="1"></stop><stop offset="80%" stop-color="#231e30" stop-opacity="1"></stop></linearGradient></defs><defs><linearGradient id="grad1_3" x1="33.3%" y1="100%" x2="100%" y2="0%"><stop offset="20%" stop-color="#3f394d" stop-opacity="1"></stop><stop offset="80%" stop-color="#5d566b" stop-opacity="1"></stop></linearGradient></defs><defs><linearGradient id="grad2_0" x1="0%" y1="100%" x2="66.7%" y2="0%"><stop offset="20%" stop-color="#000000" stop-opacity="1"></stop><stop offset="80%" stop-color="#000000" stop-opacity="1"></stop></linearGradient></defs><defs><linearGradient id="grad2_1" x1="0%" y1="100%" x2="66.7%" y2="0%"><stop offset="20%" stop-color="#231e30" stop-opacity="1"></stop><stop offset="80%" stop-color="#000000" stop-opacity="1"></stop></linearGradient></defs><defs><linearGradient id="grad2_2" x1="0%" y1="100%" x2="66.7%" y2="0%"><stop offset="20%" stop-color="#231e30" stop-opacity="1"></stop><stop offset="80%" stop-color="#3f394d" stop-opacity="1"></stop></linearGradient></defs><defs><linearGradient id="grad2_3" x1="0%" y1="100%" x2="66.7%" y2="0%"><stop offset="20%" stop-color="#5d566b" stop-opacity="1"></stop><stop offset="80%" stop-color="#3f394d" stop-opacity="1"></stop></linearGradient></defs><g transform="translate(900, 600)"><path d="M-297.5 0C-275 -24.5 -252.5 -49 -246.3 -80C-240.1 -111.1 -250.1 -148.8 -235.4 -171C-220.7 -193.3 -181.4 -200.1 -151.6 -208.7C-121.9 -217.4 -101.8 -227.9 -78.2 -240.6C-54.5 -253.3 -27.3 -268.2 0 -283L0 0Z" fill="#4e475c"></path><path d="M-223.1 0C-206.3 -18.4 -189.4 -36.7 -184.7 -60C-180.1 -83.3 -187.6 -111.6 -176.6 -128.3C-165.6 -145 -136 -150 -113.7 -156.5C-91.4 -163 -76.4 -170.9 -58.6 -180.5C-40.9 -190 -20.4 -201.1 0 -212.2L0 0Z" fill="#312b3e"></path><path d="M-148.7 0C-137.5 -12.2 -126.3 -24.5 -123.2 -40C-120 -55.6 -125.1 -74.4 -117.7 -85.5C-110.4 -96.6 -90.7 -100 -75.8 -104.4C-61 -108.7 -50.9 -114 -39.1 -120.3C-27.3 -126.7 -13.6 -134.1 0 -141.5L0 0Z" fill="#171123"></path><path d="M-74.4 0C-68.8 -6.1 -63.1 -12.2 -61.6 -20C-60 -27.8 -62.5 -37.2 -58.9 -42.8C-55.2 -48.3 -45.3 -50 -37.9 -52.2C-30.5 -54.3 -25.5 -57 -19.5 -60.2C-13.6 -63.3 -6.8 -67 0 -70.7L0 0Z" fill="#000000"></path></g><g transform="translate(0, 0)"><path d="M297.5 0C295 32.3 292.4 64.6 272 88.4C251.6 112.2 213.2 127.4 182.8 132.8C152.5 138.3 130.2 133.8 117.6 161.8C104.9 189.8 102 250.1 84.1 258.7C66.1 267.3 33 224.1 0 181L0 0Z" fill="#4e475c"></path><path d="M223.1 0C221.2 24.2 219.3 48.4 204 66.3C188.7 84.1 159.9 95.6 137.1 99.6C114.4 103.7 97.6 100.4 88.2 121.4C78.7 142.3 76.5 187.6 63 194C49.6 200.5 24.8 168.1 0 135.8L0 0Z" fill="#312b3e"></path><path d="M148.7 0C147.5 16.1 146.2 32.3 136 44.2C125.8 56.1 106.6 63.7 91.4 66.4C76.2 69.1 65.1 66.9 58.8 80.9C52.5 94.9 51 125 42 129.3C33 133.6 16.5 112.1 0 90.5L0 0Z" fill="#171123"></path><path d="M74.4 0C73.7 8.1 73.1 16.1 68 22.1C62.9 28 53.3 31.9 45.7 33.2C38.1 34.6 32.5 33.5 29.4 40.5C26.2 47.4 25.5 62.5 21 64.7C16.5 66.8 8.3 56 0 45.3L0 0Z" fill="#000000"></path></g></svg>