<svg id="visual" viewBox="0 0 900 600" width="900" height="600" xmlns="http://www.w3.org/2000/svg" xmlns:xlink="http://www.w3.org/1999/xlink" version="1.1"><path d="M0 97L13.7 128C27.3 159 54.7 221 82 246C109.3 271 136.7 259 163.8 238C191 217 218 187 245.2 166C272.3 145 299.7 133 327 128C354.3 123 381.7 125 409 133C436.3 141 463.7 155 491 164C518.3 173 545.7 177 573 166C600.3 155 627.7 129 654.8 136C682 143 709 183 736.2 198C763.3 213 790.7 203 818 211C845.3 219 872.7 245 886.3 258L900 271L900 0L886.3 0C872.7 0 845.3 0 818 0C790.7 0 763.3 0 736.2 0C709 0 682 0 654.8 0C627.7 0 600.3 0 573 0C545.7 0 518.3 0 491 0C463.7 0 436.3 0 409 0C381.7 0 354.3 0 327 0C299.7 0 272.3 0 245.2 0C218 0 191 0 163.8 0C136.7 0 109.3 0 82 0C54.7 0 27.3 0 13.7 0L0 0Z" fill="#464648"></path><path d="M0 193L13.7 218C27.3 243 54.7 293 82 321C109.3 349 136.7 355 163.8 335C191 315 218 269 245.2 241C272.3 213 299.7 203 327 206C354.3 209 381.7 225 409 229C436.3 233 463.7 225 491 227C518.3 229 545.7 241 573 237C600.3 233 627.7 213 654.8 218C682 223 709 253 736.2 271C763.3 289 790.7 295 818 306C845.3 317 872.7 333 886.3 341L900 349L900 269L886.3 256C872.7 243 845.3 217 818 209C790.7 201 763.3 211 736.2 196C709 181 682 141 654.8 134C627.7 127 600.3 153 573 164C545.7 175 518.3 171 491 162C463.7 153 436.3 139 409 131C381.7 123 354.3 121 327 126C299.7 131 272.3 143 245.2 164C218 185 191 215 163.8 236C136.7 257 109.3 269 82 244C54.7 219 27.3 157 13.7 126L0 95Z" fill="#343436"></path><path d="M0 235L13.7 266C27.3 297 54.7 359 82 387C109.3 415 136.7 409 163.8 382C191 355 218 307 245.2 284C272.3 261 299.7 263 327 273C354.3 283 381.7 301 409 301C436.3 301 463.7 283 491 279C518.3 275 545.7 285 573 279C600.3 273 627.7 251 654.8 265C682 279 709 329 736.2 358C763.3 387 790.7 395 818 405C845.3 415 872.7 427 886.3 433L900 439L900 347L886.3 339C872.7 331 845.3 315 818 304C790.7 293 763.3 287 736.2 269C709 251 682 221 654.8 216C627.7 211 600.3 231 573 235C545.7 239 518.3 227 491 225C463.7 223 436.3 231 409 227C381.7 223 354.3 207 327 204C299.7 201 272.3 211 245.2 239C218 267 191 313 163.8 333C136.7 353 109.3 347 82 319C54.7 291 27.3 241 13.7 216L0 191Z" fill="#232324"></path><path d="M0 361L13.7 383C27.3 405 54.7 449 82 468C109.3 487 136.7 481 163.8 471C191 461 218 447 245.2 427C272.3 407 299.7 381 327 384C354.3 387 381.7 419 409 428C436.3 437 463.7 423 491 422C518.3 421 545.7 433 573 429C600.3 425 627.7 405 654.8 410C682 415 709 445 736.2 457C763.3 469 790.7 463 818 468C845.3 473 872.7 489 886.3 497L900 505L900 437L886.3 431C872.7 425 845.3 413 818 403C790.7 393 763.3 385 736.2 356C709 327 682 277 654.8 263C627.7 249 600.3 271 573 277C545.7 283 518.3 273 491 277C463.7 281 436.3 299 409 299C381.7 299 354.3 281 327 271C299.7 261 272.3 259 245.2 282C218 305 191 353 163.8 380C136.7 407 109.3 413 82 385C54.7 357 27.3 295 13.7 264L0 233Z" fill="#1f1f20"></path><path d="M0 601L13.7 601C27.3 601 54.7 601 82 601C109.3 601 136.7 601 163.8 601C191 601 218 601 245.2 601C272.3 601 299.7 601 327 601C354.3 601 381.7 601 409 601C436.3 601 463.7 601 491 601C518.3 601 545.7 601 573 601C600.3 601 627.7 601 654.8 601C682 601 709 601 736.2 601C763.3 601 790.7 601 818 601C845.3 601 872.7 601 886.3 601L900 601L900 503L886.3 495C872.7 487 845.3 471 818 466C790.7 461 763.3 467 736.2 455C709 443 682 413 654.8 408C627.7 403 600.3 423 573 427C545.7 431 518.3 419 491 420C463.7 421 436.3 435 409 426C381.7 417 354.3 385 327 382C299.7 379 272.3 405 245.2 425C218 445 191 459 163.8 469C136.7 479 109.3 485 82 466C54.7 447 27.3 403 13.7 381L0 359Z" fill="#1b1b1c"></path></svg>